<?xml version="1.0" encoding="utf-8"?>
<!-- Generator: Adobe Illustrator 23.0.1, SVG Export Plug-In . SVG Version: 6.00 Build 0)  -->
<svg version="1.0" id="Layer_1" xmlns:x="&ns_extend;" xmlns:i="&ns_ai;" xmlns:graph="&ns_graphs;"
	 xmlns="http://www.w3.org/2000/svg" xmlns:xlink="http://www.w3.org/1999/xlink" xmlns:a="http://ns.adobe.com/AdobeSVGViewerExtensions/3.0/"
	 x="0px" y="0px" viewBox="0 0 512 512" enable-background="new 0 0 512 512" xml:space="preserve">
<path fill="#73BA9B" d="M471.383,72.578C444.879,43.832,408.512,28,368.973,28c-29.555,0-56.621,9.344-80.449,27.77
	C276.5,65.07,265.605,76.449,256,89.73c-9.602-13.277-20.5-24.66-32.527-33.961C199.648,37.344,172.582,28,143.027,28
	c-39.539,0-75.91,15.832-102.414,44.578C14.426,100.988,0,139.801,0,181.871c0,43.301,16.137,82.938,50.781,124.742
	c30.992,37.395,75.535,75.355,127.117,119.313c17.613,15.012,37.578,32.027,58.309,50.152c5.477,4.797,12.504,7.438,19.793,7.438
	c7.285,0,14.316-2.641,19.785-7.43c20.73-18.129,40.707-35.152,58.328-50.172c51.574-43.949,96.117-81.906,127.109-119.305
	C495.867,264.809,512,225.172,512,181.867C512,139.801,497.574,100.988,471.383,72.578z"/>
</svg>
