<?xml version="1.0" encoding="utf-8"?>
<!-- Generator: Adobe Illustrator 23.0.1, SVG Export Plug-In . SVG Version: 6.00 Build 0)  -->
<svg version="1.0" id="Capa_1" xmlns:x="&ns_extend;" xmlns:i="&ns_ai;" xmlns:graph="&ns_graphs;"
	 xmlns="http://www.w3.org/2000/svg" xmlns:xlink="http://www.w3.org/1999/xlink" xmlns:a="http://ns.adobe.com/AdobeSVGViewerExtensions/3.0/"
	 x="0px" y="0px" viewBox="0 0 512 512" enable-background="new 0 0 512 512" xml:space="preserve">
<path fill="#73BA9B" d="M490.299,185.717H384.08L324.496,49.284c-3.315-7.591-12.157-11.06-19.749-7.743
	c-7.592,3.315-11.059,12.158-7.743,19.75l54.34,124.427H160.656l54.34-124.427c3.315-7.592-0.151-16.434-7.743-19.75
	c-7.591-3.317-16.435,0.15-19.749,7.743L127.92,185.717H21.701c-13.895,0-24.207,12.579-21.167,25.82l55.935,243.63
	c2.221,9.674,11.015,16.55,21.167,16.55h356.728c10.152,0,18.946-6.876,21.167-16.55l55.935-243.63
	C514.506,198.297,504.193,185.717,490.299,185.717L490.299,185.717z M130.742,231.721c-2.004,0-4.041-0.404-5.996-1.258
	c-7.592-3.315-11.059-12.157-7.743-19.75l11.268-25.802h32.736l-16.512,37.808C142.034,228.358,136.524,231.721,130.742,231.721
	L130.742,231.721z M181,391.717c0,8.284-6.716,15-15,15s-15-6.716-15-15v-110c0-8.284,6.716-15,15-15s15,6.716,15,15V391.717z
	 M271,391.717c0,8.284-6.716,15-15,15s-15-6.716-15-15v-110c0-8.284,6.716-15,15-15s15,6.716,15,15V391.717z M361,391.717
	c0,8.284-6.716,15-15,15s-15-6.716-15-15v-110c0-8.284,6.716-15,15-15s15,6.716,15,15V391.717z M387.253,230.463
	c-1.954,0.854-3.991,1.258-5.995,1.258c-5.782,0-11.292-3.362-13.754-9.001l-16.512-37.808h32.736l11.268,25.802
	C398.312,218.306,394.845,227.148,387.253,230.463z"/>
</svg>
